# xmcd
#
# Track frame offsets:
#  150
#  16067
#  59035
#
# Disc length: 1266 seconds
#
# Revision: 0
# Processed by: cddbd v1.4PL0 Copyright (c) Steve Scherf et al.
# Submitted via: AltoMP3_Maker 3.0
#
DISCID=1f04f003
DTITLE=Julian Sas - A Light In The Dark
DYEAR=1900
DGENRE=
TTITLE0=A Light In The Dark (Single Version)
TTITLE1=A Light In The Dark (Live Version)
TTITLE2=A Light In The Dark (Bonus Video)
EXTD=
EXTT0=
EXTT1=
EXTT2=
PLAYORDER=
